<?xml version="1.0" encoding="utf-8"?>
<!-- Generator: Adobe Illustrator 15.1.0, SVG Export Plug-In . SVG Version: 6.00 Build 0)  -->
<!DOCTYPE svg PUBLIC "-//W3C//DTD SVG 1.1//EN" "http://www.w3.org/Graphics/SVG/1.1/DTD/svg11.dtd">
<svg version="1.1" id="_x32_" xmlns="http://www.w3.org/2000/svg" xmlns:xlink="http://www.w3.org/1999/xlink" x="0px" y="0px"
	 width="512px" height="512px" viewBox="0 0 512 512" style="enable-background:new 0 0 512 512;" xml:space="preserve">
<style type="text/css">
<![CDATA[
	.st0{fill:#4B4B4B;}
]]>
</style>
<g>
	<polygon class="st0" points="263.609,309.609 248.469,309.609 221.234,309.609 215.188,364.031 245.453,364.031 266.656,364.031 
		296.922,364.031 290.875,309.609 	"/>
	<path class="st0" d="M491.875,156.344C472.438,110.375,440,71.328,399.141,43.734C358.313,16.125,308.953,0,256,0
		c-35.297,0-69.016,7.156-99.656,20.125C110.375,39.563,71.328,72,43.734,112.859C16.125,153.688,0,203.031,0,256
		c0,35.297,7.156,69.016,20.125,99.656C39.563,401.625,72,440.672,112.859,468.266C153.688,495.875,203.047,512,256,512
		c35.297,0,69.016-7.156,99.656-20.125c45.953-19.438,85.016-51.875,112.609-92.734C495.875,358.313,512,308.969,512,256
		C512,220.688,504.844,186.969,491.875,156.344z M459.5,341.953c-16.75,39.609-44.781,73.375-80.031,97.188
		c-35.281,23.813-77.672,37.703-123.469,37.703c-30.531,0-59.547-6.172-85.953-17.344c-39.609-16.75-73.375-44.781-97.188-80.031
		C49.047,344.188,35.156,301.797,35.156,256c0-7.844,0.406-15.594,1.203-23.203c81.047-122.719,235.359-23.859,318.703-152.969
		c26.203,82.047,77.203,91.516,115.438,123.516c4.125,16.844,6.344,34.484,6.344,52.656
		C476.844,286.531,470.672,315.531,459.5,341.953z"/>
</g>
</svg>
